<?xml version="1.0" standalone="no"?><!DOCTYPE svg PUBLIC "-//W3C//DTD SVG 1.1//EN" "http://www.w3.org/Graphics/SVG/1.1/DTD/svg11.dtd"><svg t="1583830826090" class="icon" viewBox="0 0 1024 1024" version="1.1" xmlns="http://www.w3.org/2000/svg" p-id="2213" xmlns:xlink="http://www.w3.org/1999/xlink" width="200" height="200"><defs><style type="text/css"></style></defs><path d="M1024 701.12V196.8A197.12 197.12 0 0 0 826.88 0H196.8A197.12 197.12 0 0 0 0 196.8v630.4A196.8 196.8 0 0 0 196.8 1024h630.4a196.8 196.8 0 0 0 192-162.24c-52.16-22.4-278.4-120.32-396.16-176.64C533.12 793.92 439.36 859.2 297.6 859.2s-236.16-87.36-224-193.92c7.68-70.08 55.68-184.64 264.32-165.12a943.68 943.68 0 0 1 250.24 60.48 701.76 701.76 0 0 0 57.28-139.2H248v-39.36h196.8v-70.72h-240v-43.52h240v-102.4a18.88 18.88 0 0 1 19.84-15.68h98.56v118.08h256v43.2h-256v71.04h208.96a806.08 806.08 0 0 1-84.8 212.48C747.84 616.64 1024 701.12 1024 701.12z m-740.48 90.56c-149.76 0-173.44-96-165.44-134.08s51.2-90.56 134.4-90.56a621.76 621.76 0 0 1 284.16 74.56c-72.32 94.08-160 150.08-253.12 150.08z" p-id="2214"></path></svg>