<?xml version="1.0" standalone="no"?><!DOCTYPE svg PUBLIC "-//W3C//DTD SVG 1.1//EN" "http://www.w3.org/Graphics/SVG/1.1/DTD/svg11.dtd"><svg t="1575529181175" class="icon" viewBox="0 0 1161 1024" version="1.1" xmlns="http://www.w3.org/2000/svg" p-id="3980" xmlns:xlink="http://www.w3.org/1999/xlink" width="226.7578125" height="200"><defs><style type="text/css"></style></defs><path d="M832.470436 727.416722a103.884058 103.884058 0 0 0 103.884058-103.884058V103.90689a103.884058 103.884058 0 0 0-103.884058-103.884058H105.099377a103.884058 103.884058 0 0 0-103.884058 103.884058v519.545864a103.884058 103.884058 0 0 0 103.884058 103.884058h103.884058v103.884058H53.145932a51.953445 51.953445 0 1 0 0 103.884058h831.266533a51.953445 51.953445 0 1 0 0-103.884058H728.552131V727.416722zM337.856746 363.68553a25.98243 25.98243 0 0 1 0-51.953445h103.884058v-7.842676l-107.023411-107.023411a25.719866 25.719866 0 0 1 36.370836-36.370836l94.032196 93.518483h3.64165l90.915674-90.92709a25.920785 25.920785 0 0 1 36.393668 36.918796l-102.354336 100.790368v10.913534h103.884058a25.98243 25.98243 0 0 1 0 51.953445h-103.884058v51.953445h103.884058a25.98243 25.98243 0 0 1 0 51.953445h-103.884058v71.691415a25.98243 25.98243 0 0 1-51.953445 0V467.592419h-103.884058a25.98243 25.98243 0 0 1 0-51.953445h103.884058v-51.953444zM624.645241 831.30078H312.913156v-103.884058h311.732085z m0 0" p-id="3981"></path></svg>