<?xml version="1.0" standalone="no"?><!DOCTYPE svg PUBLIC "-//W3C//DTD SVG 1.1//EN" "http://www.w3.org/Graphics/SVG/1.1/DTD/svg11.dtd"><svg t="1575528792256" class="icon" viewBox="0 0 1024 1024" version="1.1" xmlns="http://www.w3.org/2000/svg" p-id="3248" xmlns:xlink="http://www.w3.org/1999/xlink" width="200" height="200"><defs><style type="text/css"></style></defs><path d="M1019.385023 431.38977533c-3.967945-22.399692-25.407651-45.247378-47.743343-50.17531l-16.639771-3.839948a166.077716 166.077716 0 0 1-95.99868-76.35095 167.805693 167.805693 0 0 1-17.599758-122.494315l5.183928-15.743784c6.719908-21.759701-1.919974-51.839287-19.391733-66.815081 0 0-15.743784-13.311817-59.711179-38.911465-44.159393-25.47165-63.103132-32.575552-63.103132-32.575552-21.503704-7.871892-51.583291-0.319996-67.199076 16.447774L625.47044 53.34697333a163.709749 163.709749 0 0 1-113.662437 45.375376A164.34974 164.34974 0 0 1 397.633573 53.02697733L386.561725 40.86714433C371.009939 24.22737333 340.802354 16.73947633 319.234651 24.54736933c0 0-19.199736 7.103902-63.359129 32.575552-44.159393 25.791645-59.64718 39.103462-59.64718 39.103462-17.407761 14.783797-26.111641 44.607387-19.391734 66.623084l4.799934 15.935781a168.061689 168.061689 0 0 1-17.599758 122.302318 165.11773 165.11773 0 0 1-96.574672 76.542948l-16.063779 3.64795c-22.015697 5.11993-43.6474 27.64762-47.743343 50.17531 0 0-3.64795 20.159723-3.64795 71.487017 0 51.199296 3.64795 71.423018 3.64795 71.423018 3.967945 22.655688 25.407651 45.247378 47.743343 50.17531l15.679785 3.64795a164.477738 164.477738 0 0 1 96.638671 76.798944c22.015697 38.463471 27.263625 82.366867 17.663757 122.430316l-4.479938 15.551787c-6.783907 21.8237 1.919974 51.839287 19.391733 66.815081 0 0 15.679784 13.311817 59.711179 38.911465 44.159393 25.599648 63.167131 32.575552 63.167131 32.575552 21.375706 7.871892 51.519292 0.319996 67.199076-16.447774l11.007849-11.839837c63.935121-61.247158 164.733735-61.183159 228.604857 0.063999l11.007848 11.967835c15.423788 16.70377 45.695372 24.127668 67.199076 16.383775 0 0 19.199736-7.103902 63.359129-32.639551s59.64718-38.847466 59.64718-38.847466c17.407761-14.719798 26.111641-44.799384 19.391733-66.815081l-4.735934-16.191778a166.781707 166.781707 0 0 1 114.238429-198.589269l15.743783-3.64795c22.015697-5.11993 43.6474-27.64762 47.743344-50.17531 0 0 3.64795-20.223722 3.64795-71.487017-0.191997-51.199296-3.839947-71.551016-3.839948-71.551016z m-507.57702 276.860193c-112.574452 0-204.029195-91.902736-204.029195-205.437175A204.477188 204.477188 0 0 1 511.872002 297.82361133c112.446454 0 203.965195 91.774738 203.965195 205.309177-0.255996 113.278442-91.518742 205.11718-204.029194 205.11718z" p-id="3249"></path></svg>