<?xml version="1.0" standalone="no"?><!DOCTYPE svg PUBLIC "-//W3C//DTD SVG 1.1//EN" "http://www.w3.org/Graphics/SVG/1.1/DTD/svg11.dtd"><svg t="1570497937459" class="icon" viewBox="0 0 1025 1024" version="1.1" xmlns="http://www.w3.org/2000/svg" p-id="3054" xmlns:xlink="http://www.w3.org/1999/xlink" width="200.1953125" height="200"><defs><style type="text/css"></style></defs><path d="M682.849745 744.615564C665.748945 744.615564 648.713309 737.475491 636.350836 723.465309 604.588218 687.383273 559.3088 666.745018 512.111709 666.745018 464.151273 666.745018 420.026182 686.806109 388.002909 723.204655 364.692945 749.633164 325.054836 751.690473 299.305891 727.645091 273.566255 703.655564 271.639273 662.891055 294.949236 636.462545 350.282473 573.635491 429.437673 537.627927 512.111709 537.627927 594.664727 537.627927 673.819927 573.765818 729.339345 636.713891 752.658618 663.1424 750.675782 703.906909 724.992 727.896436 713.020509 739.151127 697.902545 744.615564 682.849745 744.615564L682.849745 744.615564 682.849745 744.615564ZM822.197527 583.019055C806.1952 583.019055 790.1184 576.7168 777.886255 564.242618 706.802036 491.52 612.407855 451.518836 512.111709 451.518836 411.573527 451.518836 317.170036 491.454836 246.216145 563.991273 221.630836 589.200291 181.853091 588.995491 157.3888 563.730618 132.933818 538.456436 133.064145 497.5616 157.649455 472.417745 252.304291 375.714909 378.209745 322.401745 512.111709 322.401745 645.8368 322.401745 771.677091 375.770764 866.518109 472.743564 891.112727 497.887418 891.177891 538.782255 866.778764 564.1216 854.481455 576.660945 838.339491 583.019055 822.197527 583.019055L822.197527 583.019055 822.197527 583.019055ZM961.238109 421.813527C945.608145 421.813527 929.987491 415.837091 917.755345 403.874909 808.122182 295.852218 664.091927 236.301964 512.111709 236.301964 359.824291 236.301964 215.728873 295.721891 106.356364 403.688727 81.370764 428.311273 41.611636 427.538618 17.529018 401.752436-6.488436 376.031418-5.650618 335.136582 19.316364 310.439564 152.203636 179.330327 327.168 107.054545 512.046545 107.054545 696.552727 107.054545 871.517091 179.330327 1004.655709 310.504727 1029.697164 335.201745 1030.525673 376.096582 1006.582691 401.8176 994.220218 415.1296 977.696582 421.813527 961.238109 421.813527L961.238109 421.813527 961.238109 421.813527ZM436.224 838.944582C436.224 882.027055 470.164945 916.945455 512.111709 916.945455 553.993309 916.945455 587.999418 882.027055 587.999418 838.944582 587.999418 795.862109 553.993309 760.943709 512.111709 760.943709 470.230109 761.008873 436.224 795.862109 436.224 838.944582L436.224 838.944582 436.224 838.944582Z" p-id="3055"></path></svg>