<?xml version="1.0" standalone="no"?><!DOCTYPE svg PUBLIC "-//W3C//DTD SVG 1.1//EN" "http://www.w3.org/Graphics/SVG/1.1/DTD/svg11.dtd"><svg t="1582166213874" class="icon" viewBox="0 0 1024 1024" version="1.1" xmlns="http://www.w3.org/2000/svg" p-id="1882" xmlns:xlink="http://www.w3.org/1999/xlink" width="200" height="200"><defs><style type="text/css"></style></defs><path d="M1009.521487 964.936942l-171.96896-171.96896c73.246039-82.79987 117.830584-194.261233 117.830584-315.276426 0-264.322661-213.368895-477.691556-477.691555-477.691556S0 216.553505 0 480.876166s213.368895 477.691556 477.691556 477.691555c121.015194 0 229.291947-44.584545 315.276426-117.830583l171.96896 171.96896c12.738441 12.738441 35.030714 15.923052 47.769156 3.18461 9.553831-15.923052 9.553831-35.030714-3.184611-50.953766zM477.691556 894.875514C248.399609 894.875514 63.692207 710.168113 63.692207 480.876166S248.399609 66.876818 477.691556 66.876818s413.999348 184.707401 413.999348 413.999348-184.707401 413.999348-413.999348 413.999348z" p-id="1883"></path><path d="M620.999022 232.476557c-15.923052-9.553831-35.030714-3.18461-44.584545 12.738442l-254.76883 442.660841c-9.553831 15.923052-3.18461 35.030714 12.738442 44.584545 15.923052 9.553831 35.030714 3.18461 44.584545-12.738441l254.76883-442.660842c6.369221-15.923052 3.18461-35.030714-12.738442-44.584545zM382.153244 385.337855c0-19.107662-12.738441-31.846104-31.846103-31.846104H286.614933V289.799544c0-19.107662-12.738441-31.846104-31.846103-31.846104s-31.846104 12.738441-31.846104 31.846104v63.692207H159.230519c-19.107662 0-31.846104 12.738441-31.846104 31.846104s12.738441 31.846104 31.846104 31.846104h63.692207v63.692207c0 19.107662 12.738441 31.846104 31.846104 31.846104s31.846104-12.738441 31.846103-31.846104v-63.692207h63.692208c19.107662 0 31.846104-12.738441 31.846103-31.846104zM796.152593 544.568373h-191.076623c-19.107662 0-31.846104 12.738441-31.846103 31.846104s12.738441 31.846104 31.846103 31.846104h191.076623c19.107662 0 31.846104-12.738441 31.846103-31.846104s-12.738441-31.846104-31.846103-31.846104z" p-id="1884"></path></svg>