<?xml version="1.0" standalone="no"?><!DOCTYPE svg PUBLIC "-//W3C//DTD SVG 1.1//EN" "http://www.w3.org/Graphics/SVG/1.1/DTD/svg11.dtd"><svg t="1613521544327" class="icon" viewBox="0 0 1024 1024" version="1.1" xmlns="http://www.w3.org/2000/svg" p-id="5095" xmlns:xlink="http://www.w3.org/1999/xlink" width="200" height="200"><defs><style type="text/css"></style></defs><path d="M905.325714 118.089143C823.222857 29.696 671.213714 1.133714 552.868571 0h-92.141714c-120.502857 0-258.011429 27.136-342.454857 118.089143C29.696 200.118857 1.133714 342.070857 0 460.873143v92.16s0-14.025143 0 0c0 120.557714 27.136 268.342857 118.052571 352.731428 84.461714 90.733714 232.192 118.4 352.896 117.778286 14.116571 0-13.110857 1.024 0 0 16.384 0.914286 74.422857 0 92.141715 0 118.546286-1.024 260.352-29.604571 342.454857-118.089143 88.356571-81.92 116.918857-223.872 118.052571-342.473143 0-17.718857 0.914286-75.794286 0-92.16 0.804571-13.220571 0 14.116571 0 0 0.182857-120.557714-27.337143-268.251429-118.253714-352.731428z" fill="#15C669" p-id="5096"></path><path d="M672.109714 405.613714c7.606857-0.237714 15.213714 0.091429 22.747429 1.024C673.042286 309.650286 567.497143 237.714286 446.756571 237.714286 311.771429 237.714286 201.142857 328.905143 201.142857 442.002286c0 65.554286 35.968 120.978286 97.682286 162.633143L274.432 676.571429l86.125714-41.545143c28.16 7.259429 57.088 11.465143 86.198857 12.562285 8.155429 0.182857 16.310857-0.256 24.393143-1.316571a167.625143 167.625143 0 0 1-7.643428-50.651429c0-104.685714 91.373714-190.518857 208.402285-190.518857l0.201143 0.512z m-132.937143-65.554285c8.411429-0.585143 16.64 2.432 22.582858 8.265142 5.942857 5.833143 9.014857 13.897143 8.429714 22.125715 0.384 8.173714-2.742857 16.128-8.649143 21.924571a29.988571 29.988571 0 0 1-22.363429 8.484572c-19.218286 0-37.302857-12.672-37.302857-30.409143 0-17.737143 19.419429-30.390857 37.302857-30.390857z m-170.148571 56.429714c-19.437714 0-38.034286-12.562286-38.034286-30.390857 0-17.828571 19.419429-29.897143 37.613715-29.897143a31.268571 31.268571 0 0 1 31.268571 13.257143 29.897143 29.897143 0 0 1 0 33.389714 31.268571 31.268571 0 0 1-31.268571 13.238857l0.420571 0.402286z" fill="#FFFFFF" p-id="5097"></path><path d="M493.714286 621.714286c0 100.992 81.865143 182.857143 182.857143 182.857143s182.857143-81.865143 182.857142-182.857143a182.747429 182.747429 0 0 0-182.857142-182.857143c-100.992 0-182.857143 81.865143-182.857143 182.857143z m292.937143-21.851429a65.755429 65.755429 0 0 1-37.504 27.739429c-3.401143 1.024-6.948571 1.590857-10.496 1.682285a12.397714 12.397714 0 0 1-12.507429-12.288 12.178286 12.178286 0 0 1 12.507429-12.196571c0.896 0.182857 1.828571 0.182857 2.724571 0a38.765714 38.765714 0 0 0 23.954286-17.225143 30.354286 30.354286 0 0 0 4.717714-16.585143 38.326857 38.326857 0 0 0-40.429714-35.401143c-7.68 0.073143-15.213714 2.011429-21.942857 5.668572a34.340571 34.340571 0 0 0-18.706286 29.732571v101.76a58.185143 58.185143 0 0 1-31.506286 50.742857 69.942857 69.942857 0 0 1-34.249143 8.923429 63.012571 63.012571 0 0 1-65.225143-59.666286 56.813714 56.813714 0 0 1 8.502858-29.403428 64.694857 64.694857 0 0 1 37.394285-27.721143 37.485714 37.485714 0 0 1 10.514286-1.682286 12.178286 12.178286 0 0 1 12.379429 12.178286 12.397714 12.397714 0 0 1-3.565715 8.832 12.178286 12.178286 0 0 1-8.813714 3.474286 6.308571 6.308571 0 0 0-2.742857 0 40.338286 40.338286 0 0 0-23.954286 17.115428c-3.236571 5.138286-4.882286 11.136-4.717714 17.206857a38.217143 38.217143 0 0 0 40.649143 35.291429c7.68 0.018286 15.213714-1.901714 21.942857-5.558857a34.651429 34.651429 0 0 0 18.907428-29.732572v-102.290285a58.404571 58.404571 0 0 1 31.524572-50.724572 65.536 65.536 0 0 1 33.92-9.142857 63.012571 63.012571 0 0 1 65.645714 59.867429 58.294857 58.294857 0 0 1-8.923428 29.403428z" fill="#FFFFFF" p-id="5098"></path></svg>