<?xml version="1.0" standalone="no"?><!DOCTYPE svg PUBLIC "-//W3C//DTD SVG 1.1//EN" "http://www.w3.org/Graphics/SVG/1.1/DTD/svg11.dtd"><svg t="1582166638244" class="icon" viewBox="0 0 1024 1024" version="1.1" xmlns="http://www.w3.org/2000/svg" p-id="4625" xmlns:xlink="http://www.w3.org/1999/xlink" width="200" height="200"><defs><style type="text/css"></style></defs><path d="M512 996.050824c-265.035294 0-481.882353-217.690353-481.882353-483.809883C30.117647 375.265882 86.317176 246.181647 190.765176 149.383529 222.870588 117.157647 271.058824 125.289412 303.164235 157.455059c32.165647 32.286118 24.094118 80.655059-8.011294 112.880941C230.881882 334.908235 190.765176 423.574588 190.765176 512.240941c0 177.392941 144.564706 322.56 321.234824 322.56 176.670118 0 321.234824-145.167059 321.234824-322.56 0-88.666353-40.116706-177.392941-104.387765-241.904941a86.618353 86.618353 0 0 1-8.011294-112.880941 85.775059 85.775059 0 0 1 112.399059-8.07153C937.682824 238.110118 993.882353 375.265882 993.882353 512.240941c0 266.119529-216.847059 483.809882-481.882353 483.809883z" p-id="4626"></path><path d="M512 504.169412c-48.188235 0-80.293647-28.792471-80.293647-71.981177v-360.207059C431.706353 36.080941 463.811765 0 512 0c40.176941 0 80.293647 28.792471 80.293647 72.041412v360.146823C592.293647 475.376941 560.188235 504.169412 512 504.169412z" p-id="4627"></path></svg>