<?xml version="1.0" standalone="no"?><!DOCTYPE svg PUBLIC "-//W3C//DTD SVG 1.1//EN" "http://www.w3.org/Graphics/SVG/1.1/DTD/svg11.dtd"><svg t="1582091124941" class="icon" viewBox="0 0 1024 1024" version="1.1" xmlns="http://www.w3.org/2000/svg" p-id="3203" xmlns:xlink="http://www.w3.org/1999/xlink" width="200" height="200"><defs><style type="text/css"></style></defs><path d="M996.266285 487.408035 626.105434 883.148876 505.221492 776.733083 879.686759 384.026192C891.91737 370.088984 907.978342 375.531132 922.256869 387.496272L994.464877 447.606404C1008.648593 459.552582 1008.458971 473.527714 996.266285 487.408035ZM317.988859 1015.561827 104.834915 1015.561827C14.480095 1010.195528 19.561961 966.146368 19.561961 930.137175L19.618847 545.413364 19.618847 503.469007 19.618847 447.814988 19.618847 435.451642 19.561961 98.550467C19.561961 49.49529 3.804384-2.574875 104.834915 0.098793L787.056476 0.098793C868.726615-2.195632 870.035006 48.262748 870.035006 85.409672L870.035006 319.649567 426.774925 771.992536 317.988859 1015.561827ZM732.312643 106.11638 167.448057 106.11638C145.148525 106.11638 127.096523 123.789138 127.096523 145.576691 127.096523 167.364244 145.148525 184.999078 167.448057 184.999078L732.312643 184.999078C754.57425 184.999078 772.645214 167.364244 772.645214 145.576691 772.645214 123.789138 754.57425 106.11638 732.312643 106.11638ZM772.645214 303.569632C772.645214 281.78208 754.57425 264.109321 732.312643 264.109321L167.448057 264.109321C145.148525 264.109321 127.096523 281.78208 127.096523 303.569632 127.096523 325.338223 145.148525 342.992019 167.448057 342.992019L732.312643 342.992019C754.57425 342.992019 772.645214 325.338223 772.645214 303.569632ZM557.443355 461.562574C557.443355 439.756059 539.353429 422.045376 517.129746 422.045376L167.448057 422.045376C145.148525 422.045376 127.096523 439.756059 127.096523 461.562574 127.096523 483.331164 145.148525 500.98496 167.448057 500.98496L517.129746 500.98496C539.353429 500.98496 557.443355 483.312202 557.443355 461.562574ZM466.804102 817.255276 572.726878 909.411504C572.726878 909.411504 459.181302 1000.638586 402.673985 1019.411151 378.212764 1027.583853 371.310528 1026.749517 378.838516 999.785287 392.889497 949.990584 466.804102 817.255276 466.804102 817.255276ZM869.504065 711.996176 869.504065 825.712411 869.504065 939.409684C869.504065 971.379931 866.659737 1019.942092 793.863901 1015.220507L755.95849 1015.220507 718.166851 1015.220507 604.6592 1015.220507C627.527598 998.68548 869.504065 711.996176 869.504065 711.996176Z" p-id="3204"></path></svg>