<?xml version="1.0" standalone="no"?><!DOCTYPE svg PUBLIC "-//W3C//DTD SVG 1.1//EN" "http://www.w3.org/Graphics/SVG/1.1/DTD/svg11.dtd"><svg t="1583454118215" class="icon" viewBox="0 0 1024 1024" version="1.1" xmlns="http://www.w3.org/2000/svg" p-id="3152" xmlns:xlink="http://www.w3.org/1999/xlink" width="200" height="200"><defs><style type="text/css"></style></defs><path d="M409.299082 140.119861c-63.974323 77.050835-116.179784 140.22045-115.978607 140.321039 0.402354 0.502943 320.273969-183.272353 320.273969-183.976473 0-0.603531-79.967904-88.216165-85.80204-94.15089L525.579455 0.201177 409.299082 140.119861zM546.099521 164.864647c-109.239174 62.867849-199.768876 115.07331-201.177116 115.978607-2.313537 1.609417 12.57357 1.710005 254.891406 1.710005 171.60408 0.100589 257.204943-0.201177 257.204943-0.905297 0-1.106474-110.546825-229.341912-111.552711-230.448386-0.301766-0.402354-90.026759 50.797222-199.366522 113.665071zM98.37985 311.82453c-17.804175 3.017657-34.099521 11.86945-46.170149 24.945962-7.544142 8.248262-12.271804 15.792404-15.691815 25.14714-5.532371 14.887107-5.230605-0.502943-5.331193 304.78333 0 203.088299 0.301766 284.967385 1.106474 290.19799 4.224719 27.058322 22.531837 50.093102 48.383096 60.856078 16.094169 6.739433-16.496524 6.236491 431.021971 6.23649 288.286807 0 407.886603-0.301766 412.916031-1.106474 31.38363-4.828251 56.430181-27.058322 65.382563-57.939009l2.313536-7.845908v-579.390094l-2.313536-7.946496c-4.627074-15.892992-13.881221-30.176567-26.052437-40.336012-7.544142-6.236491-21.324774-13.378278-31.484219-16.295346-6.337079-1.710005-21.62654-1.810594-417.945458-1.911183-226.324255-0.100589-413.519562 0.201177-416.134864 0.603532zM649.806324 464.216195c6.538256 3.319422 15.993581 12.57357 19.111826 18.608883 4.425897 8.650616 2.212948 18.206529-5.230605 23.03478-1.810594 1.106474-23.537723 22.028894-48.483684 46.572503l-45.164263 44.560731 44.66132 0.502942 44.661319 0.502943 5.029428 2.514714c6.437668 3.218834 12.171216 8.952382 15.188873 15.39005 6.135902 13.27769 0 26.756556-15.691815 34.300698l-6.538257 3.118245-61.861963 0.502943-61.861963 0.502943-0.301766 30.880687-0.201177 30.880687 59.548427 0.301766 59.649014 0.301766 4.727663 2.313537c6.538256 3.218834 12.57357 9.455324 15.591226 15.99358 4.727662 10.360621 1.710005 21.525951-8.248262 30.277156-8.449439 7.443553-6.840022 7.242376-72.624939 7.242376H533.123597v110.144471l-2.414125 5.029428c-4.425897 9.555913-16.194758 17.602998-25.650083 17.602998-4.425897 0-10.863564-2.917068-13.881221-6.135902-1.207063-1.307651-3.218834-4.727662-4.526485-7.443553l-2.313536-5.029428-0.301766-57.134301-0.301766-57.033713H365.643648l-5.230605-2.414125c-6.437668-3.017657-12.975924-9.455324-15.691815-15.591226-5.632959-12.472981 0.70412-27.561265 14.887107-35.105407l5.029428-2.715891 59.649014-0.301766 59.548427-0.301766V653.825627H365.643648l-5.230605-2.414125c-10.662387-5.029428-17.804175-15.390049-17.804175-25.750671 0.100589-10.058856 7.64473-20.520066 18.407706-25.549494 4.425897-2.011771 6.337079-2.11236 49.087217-2.615303l44.460142-0.502942-48.08133-47.4778c-50.998399-50.394868-53.412524-53.110759-53.412525-61.962551 0-5.331194 1.106474-7.141788 10.260033-15.993581 9.857679-9.656502 14.786518-11.366507 24.342431-8.751205 2.81648 0.804708 6.437668 3.621188 13.579456 10.762976 10.46121 10.561799 109.239174 102.097386 110.647413 102.600329 0.502943 0.100589 26.555379-25.147139 58.039598-56.229004 31.484219-31.081864 58.643129-57.134301 60.252547-57.939009 4.425897-2.011771 13.177101-1.106474 19.614768 2.212948z" p-id="3153"></path></svg>