<?xml version="1.0" standalone="no"?><!DOCTYPE svg PUBLIC "-//W3C//DTD SVG 1.1//EN" "http://www.w3.org/Graphics/SVG/1.1/DTD/svg11.dtd"><svg t="1580343240016" class="icon" viewBox="0 0 1024 1024" version="1.1" xmlns="http://www.w3.org/2000/svg" p-id="5153" xmlns:xlink="http://www.w3.org/1999/xlink" width="200" height="200"><defs><style type="text/css"></style></defs><path d="M318.7 956h381.9c35.1 0 62.4-29.5 62.4-64.7V701H256v190.3c0 35.2 27.6 64.7 62.7 64.7zM700.6 65H318.7c-35.1 0-62.7 27.4-62.7 62.6V317h507V127.6c0-35.2-27.3-62.6-62.4-62.6z" p-id="5154"></path><path d="M827 317v65H192v-65h-64.2C92.6 317 65 347 65 382.2v445.5c0 35.2 27.6 64.3 62.8 64.3H192V637h635v255h64.5c35.1 0 64.5-29.1 64.5-64.3V382.2c0-35.2-29.3-65.2-64.5-65.2H827z m0 194H637v-65h190v65z" p-id="5155"></path></svg>