<?xml version="1.0" standalone="no"?><!DOCTYPE svg PUBLIC "-//W3C//DTD SVG 1.1//EN" "http://www.w3.org/Graphics/SVG/1.1/DTD/svg11.dtd"><svg t="1570517252155" class="icon" viewBox="0 0 1024 1024" version="1.1" xmlns="http://www.w3.org/2000/svg" p-id="8115" xmlns:xlink="http://www.w3.org/1999/xlink" width="200" height="200"><defs><style type="text/css"></style></defs><path d="M194.4 941.5c41.1 0 74.5-33.3 74.5-74.4h-149c0 41.1 33.4 74.4 74.5 74.4z m307.1-524c-26 0-26 50.1 1.3 50.1 71 0 128.6-72.9 128.6-162.9s-57.6-162.9-128.6-162.9c-27.3 0-27.3 50.1-1.3 50.1 45.2 0 83.1 55.5 83.1 112.8s-37.8 112.8-83.1 112.8z m327.9 524c41.1 0 74.5-33.3 74.5-74.4h-149c0 41.1 33.4 74.4 74.5 74.4z m63-410.9H232.1V227.4c0-18.1-12.5-32.7-28-32.7s-28 14.6-28 32.7v303.2h-44.6C94.1 530.6 64 559 64 594.1v190.5c0 35.1 30.3 63.5 67.6 63.5h760.9c37.4 0 67.6-28.4 67.6-63.5V594.1c-0.1-35.1-30.3-63.5-67.7-63.5z m-334 205.6c-25.8 0-46.7-20.9-46.7-46.7s20.9-46.7 46.7-46.7 46.7 20.9 46.7 46.7c0 25.8-20.8 46.7-46.7 46.7z m149.7 0c-25.8 0-46.8-20.9-46.8-46.7s20.9-46.7 46.8-46.7c25.8 0 46.8 20.9 46.8 46.7-0.1 25.8-21 46.7-46.8 46.7z m149.3 0c-25.8 0-46.6-20.9-46.6-46.7s20.9-46.7 46.6-46.7 46.6 20.9 46.6 46.7c0 25.8-20.9 46.7-46.6 46.7zM721 408.4c-29.9 0-29.9 59.2 1.5 59.2 81.7 0 147.9-86.2 147.9-192.5S804.2 82.6 722.5 82.6c-31.4 0-31.4 59.2-1.5 59.2 52 0 95.6 65.6 95.6 133.3S773 408.4 721 408.4z m-398.7 18.2c-26 0-26 41 1.3 41 71 0 128.6-59.7 128.6-133.3S394.6 201 323.6 201c-27.3 0-27.3 41-1.3 41 45.2 0 83.1 45.4 83.1 92.3s-37.9 92.3-83.1 92.3z" p-id="8116"></path></svg>