<?xml version="1.0" standalone="no"?><!DOCTYPE svg PUBLIC "-//W3C//DTD SVG 1.1//EN" "http://www.w3.org/Graphics/SVG/1.1/DTD/svg11.dtd"><svg t="1613374358648" class="icon" viewBox="0 0 1024 1024" version="1.1" xmlns="http://www.w3.org/2000/svg" p-id="2765" xmlns:xlink="http://www.w3.org/1999/xlink" width="200" height="200"><defs><style type="text/css"></style></defs><path d="M839.054222 142.222222C924.416 142.222222 967.111111 184.490667 967.111111 269.027556v457.500444C967.111111 811.064889 924.444444 853.333333 839.054222 853.333333H184.945778C99.584 853.333333 56.888889 811.064889 56.888889 726.528V269.027556C56.888889 184.490667 99.555556 142.222222 184.945778 142.222222h654.108444zM248.405333 260.750222a33.479111 33.479111 0 0 0-32.284444-1.166222 30.435556 30.435556 0 0 0-17.009778 26.112c-0.284444 11.008 5.603556 21.333333 15.502222 27.022222l279.608889 166.343111c5.12 2.986667 11.093333 4.551111 17.095111 4.494223 5.973333 0.028444 11.804444-1.536 16.896-4.494223l281.543111-166.371555c15.075556-8.931556 19.626667-27.818667 10.24-42.154667-9.386667-14.336-29.212444-18.716444-44.259555-9.784889l-263.566222 156.416z" p-id="2766"></path></svg>