<?xml version="1.0" standalone="no"?><!DOCTYPE svg PUBLIC "-//W3C//DTD SVG 1.1//EN" "http://www.w3.org/Graphics/SVG/1.1/DTD/svg11.dtd"><svg t="1613520749432" class="icon" viewBox="0 0 1024 1024" version="1.1" xmlns="http://www.w3.org/2000/svg" p-id="4344" xmlns:xlink="http://www.w3.org/1999/xlink" width="200" height="200"><defs><style type="text/css"></style></defs><path d="M512 0C229.22752 0 0 229.23264 0 512s229.22752 512 512 512 512-229.23264 512-512S794.77248 0 512 0z m68.09088 635.45344l-120.58112 120.58112c-52.36736 52.01408-136.89856 52.01408-189.26592 0l-2.26304-2.2016c-52.08576-52.36224-52.08576-136.96512 0-189.32736l55.35232-51.82976a29.95712 29.95712 0 0 1 5.66272-5.2224l0.62976-0.56832v0.128a29.4912 29.4912 0 0 1 16.67072-5.15584 29.568 29.568 0 0 1 18.36544 52.83328l-53.27872 53.27872c-28.30336 28.18048-28.30336 74.09664 0 102.4l2.26304 2.26304c28.24192 28.24192 74.21952 28.24192 102.46656 0l120.64256-120.51456c28.24192-28.30336 36.736-76.86656 8.42752-105.16992l-2.26304-2.2016c-2.3296-2.39104-4.90496-4.46464-7.48544-6.6048a27.35616 27.35616 0 0 1-13.0816-23.27552 27.17696 27.17696 0 0 1 46.16704-19.6864 134.0416 134.0416 0 0 1 13.7728 11.88864l2.2016 2.2016c51.95776 52.0192 47.55456 134.10304-4.4032 186.18368z m175.93344-175.99488l-55.98208 51.64032a29.57312 29.57312 0 0 1-6.66624 6.16448l-0.8192 0.75264-0.128-0.18944a29.27616 29.27616 0 0 1-15.4112 4.4032 29.312 29.312 0 0 1-17.42336-53.02784l53.08928-53.08928c28.30336-28.30336 28.30336-74.22464 0-102.528l-2.26304-2.2016c-28.288-28.24704-74.112-28.24704-102.4 0l-120.64256 120.5248c-28.24192 28.30336-38.99904 69.31456-10.75712 97.62304l2.26304 2.14016c4.4032 4.4032 10.75712 9.05728 14.15168 16.73216a25.79456 25.79456 0 0 1-35.97824 33.52576l-0.128-0.06144a26.9824 26.9824 0 0 1-6.29248-5.0944 181.6576 181.6576 0 0 1-7.296-6.7328l-2.2016-2.2016c-52.08064-52.08064-49.18784-127.24736 2.83136-179.26656l120.58112-120.58112c52.352-52.0448 136.91392-52.0448 189.26592 0l2.2016 2.2016c52.08576 52.34176 52.08576 136.92928 0.00512 189.26592z" p-id="4345"></path></svg>