<?xml version="1.0" standalone="no"?><!DOCTYPE svg PUBLIC "-//W3C//DTD SVG 1.1//EN" "http://www.w3.org/Graphics/SVG/1.1/DTD/svg11.dtd"><svg t="1574816026384" class="icon" viewBox="0 0 1024 1024" version="1.1" xmlns="http://www.w3.org/2000/svg" p-id="3255" xmlns:xlink="http://www.w3.org/1999/xlink" width="200" height="200"><defs><style type="text/css"></style></defs><path d="M669.696 881.664l-143.36 65.536h-2.048c-5.12 2.048-10.24 3.072-15.36 3.072s-10.24-1.024-15.36-3.072H491.52l-143.36-65.536H76.8V537.6H102.4V280.576c0-4.096 1.024-7.168 2.048-10.24 0-1.024 1.024-2.048 1.024-3.072l3.072-6.144c1.024-1.024 2.048-2.048 2.048-3.072 2.048-3.072 5.12-6.144 8.192-8.192 1.024-1.024 2.048-1.024 2.048-2.048 1.024-1.024 2.048-1.024 3.072-2.048 1.024 0 1.024-1.024 2.048-1.024L492.544 79.872c10.24-5.12 22.528-5.12 32.768 0l366.592 162.816c1.024 0 1.024 1.024 2.048 1.024 1.024 1.024 2.048 1.024 3.072 2.048 1.024 1.024 2.048 1.024 2.048 2.048 3.072 2.048 5.12 5.12 8.192 8.192 1.024 1.024 2.048 2.048 2.048 3.072l3.072 6.144c0 1.024 1.024 2.048 1.024 3.072 1.024 3.072 2.048 7.168 2.048 10.24v257.024H942.08v344.064H669.696z m164.864-344.064V344.064L549.888 471.04v66.56h284.672z m-366.592 0V471.04L183.296 344.064v193.536h284.672z m40.96-375.808l-266.24 118.784L389.12 346.112 508.928 399.36l119.808-53.248 146.432-65.536-266.24-118.784z m176.128 431.104v222.208h131.072v-38.912h-82.944V592.896h-48.128z m-246.784 28.672c-20.48 21.504-30.72 50.176-30.72 84.992 0 32.768 10.24 59.392 29.696 80.896 19.456 20.48 46.08 31.744 77.824 31.744 11.264 0 22.528-1.024 31.744-4.096l19.456 19.456h70.656l-46.08-44.032c1.024-1.024 2.048-3.072 4.096-4.096 20.48-21.504 30.72-50.176 30.72-83.968 0-32.768-9.216-60.416-28.672-81.92-19.456-21.504-45.056-31.744-76.8-31.744-33.792 0-61.44 11.264-81.92 32.768zM517.12 778.24c-18.432 0-32.768-7.168-43.008-20.48s-15.36-31.744-15.36-53.248 5.12-39.936 16.384-53.248c10.24-13.312 25.6-20.48 44.032-20.48 18.432 0 32.768 7.168 43.008 20.48s15.36 31.744 15.36 55.296c0 22.528-5.12 39.936-15.36 53.248-12.288 11.264-26.624 18.432-45.056 18.432z m-214.016-37.888c5.12 5.12 8.192 11.264 8.192 17.408 0 7.168-3.072 12.288-10.24 17.408-6.144 4.096-16.384 7.168-28.672 7.168-22.528 0-43.008-7.168-61.44-22.528v47.104c16.384 8.192 36.864 12.288 62.464 12.288 27.648 0 49.152-5.12 64.512-16.384s22.528-27.648 22.528-49.152c0-14.336-4.096-26.624-12.288-37.888-8.192-10.24-23.552-20.48-46.08-29.696-18.432-8.192-30.72-14.336-35.84-19.456s-7.168-10.24-7.168-16.384c0-7.168 3.072-13.312 10.24-17.408 7.168-4.096 16.384-6.144 27.648-6.144 20.48 0 37.888 5.12 52.224 15.36v-44.032c-14.336-6.144-32.768-8.192-54.272-8.192-25.6 0-47.104 6.144-62.464 17.408S208.896 634.88 208.896 655.36c0 27.648 17.408 49.152 52.224 64.512 22.528 8.192 36.864 15.36 41.984 20.48z" p-id="3256"></path></svg>