<?xml version="1.0" standalone="no"?><!DOCTYPE svg PUBLIC "-//W3C//DTD SVG 1.1//EN" "http://www.w3.org/Graphics/SVG/1.1/DTD/svg11.dtd"><svg t="1584243648572" class="icon" viewBox="0 0 1024 1024" version="1.1" xmlns="http://www.w3.org/2000/svg" p-id="2547" xmlns:xlink="http://www.w3.org/1999/xlink" width="200" height="200"><defs><style type="text/css"></style></defs><path d="M512.3 11.2c-276.1 0-500 223.9-500 500s223.9 500 500 500 500-223.9 500-500-223.8-500-500-500z m311.9 374.2L484.8 724.8c-19.7 19.7-50 22.8-73 9.2-4.4-2.5-8.5-5.7-12.3-9.4l-198-198c-23.3-23.3-23.3-61.5 0-84.9 23.3-23.3 61.5-23.3 84.9 0l155.9 155.9 297.1-297.1c23.3-23.3 61.5-23.3 84.9 0 23.3 23.4 23.3 61.6-0.1 84.9z" p-id="2548"></path></svg>