<?xml version="1.0" standalone="no"?><!DOCTYPE svg PUBLIC "-//W3C//DTD SVG 1.1//EN" "http://www.w3.org/Graphics/SVG/1.1/DTD/svg11.dtd"><svg t="1575529256114" class="icon" viewBox="0 0 1024 1024" version="1.1" xmlns="http://www.w3.org/2000/svg" p-id="4693" xmlns:xlink="http://www.w3.org/1999/xlink" width="200" height="200"><defs><style type="text/css"></style></defs><path d="M883.712 304.64h-181.76c-59.392 0-108.032 48.64-108.032 108.032v403.456c0 59.392 48.64 108.032 108.032 108.032h181.76c59.392 0 108.032-48.64 108.032-108.032V412.672c0-59.392-48.64-108.032-108.032-108.032z m46.592 108.032v379.392H655.36V412.672c0-3.584 0.512-6.656 1.024-10.24h272.384c1.024 3.584 1.536 7.168 1.536 10.24z" p-id="4694"></path><path d="M553.472 832h-107.52V752.64h108.032v-99.328H100.864v-445.44c0-6.656 5.632-12.8 12.8-12.8h604.16c6.656 0 12.8 5.632 12.8 12.8v72.704h61.44V207.36c0-40.96-33.28-74.24-74.24-74.24h-604.16c-40.96 0-74.24 33.28-74.24 74.24v471.04c0 40.96 33.28 74.24 74.24 74.24h271.36v79.36h-107.52c-16.896 0-30.72 13.824-30.72 30.72s13.824 30.72 30.72 30.72h275.968c16.896 0 30.72-13.824 30.72-30.72s-13.824-30.72-30.72-30.72z" p-id="4695"></path></svg>